<?xml version="1.0" encoding="UTF-8"?>
<svg version="1.1" xmlns="http://www.w3.org/2000/svg" width="512" height="512">
<path d="M0 0 C2.11328125 1.3359375 2.11328125 1.3359375 3.6875 2.625 C3.6875 3.285 3.6875 3.945 3.6875 4.625 C4.3475 4.625 5.0075 4.625 5.6875 4.625 C10.26130181 15.43580429 10.94951281 26.3617196 11.25830078 37.9753418 C11.42528503 43.05404851 11.98590645 47.74279494 13.21875 52.67700195 C13.6875 54.625 13.6875 54.625 14.1875 58.125 C14.3525 58.95 14.5175 59.775 14.6875 60.625 C15.3475 60.955 16.0075 61.285 16.6875 61.625 C17.9765625 63.62109375 17.9765625 63.62109375 19.3125 66.0625 C19.75851563 66.86558594 20.20453125 67.66867188 20.6640625 68.49609375 C21.6875 70.625 21.6875 70.625 21.6875 72.625 C22.3475 72.625 23.0075 72.625 23.6875 72.625 C24.3475 74.275 25.0075 75.925 25.6875 77.625 C26.3475 77.625 27.0075 77.625 27.6875 77.625 C27.6875 78.285 27.6875 78.945 27.6875 79.625 C28.6775 79.955 29.6675 80.285 30.6875 80.625 C30.6875 81.285 30.6875 81.945 30.6875 82.625 C31.409375 82.893125 32.13125 83.16125 32.875 83.4375 C35.6875 84.625 35.6875 84.625 37.90625 86.0625 C48.93714989 92.25963477 64.30270657 93.57069088 76.44140625 90.75390625 C79.56539401 89.80100272 82.61942716 88.74188616 85.6875 87.625 C87.01549939 87.27101341 88.34699526 86.9282094 89.6875 86.625 C89.67589844 86.068125 89.66429687 85.51125 89.65234375 84.9375 C89.64332031 84.174375 89.63429687 83.41125 89.625 82.625 C89.61339844 81.8825 89.60179687 81.14 89.58984375 80.375 C89.85155525 73.00520409 91.11316497 67.89727617 94.5625 61.4375 C94.91441406 60.75236328 95.26632813 60.06722656 95.62890625 59.36132812 C101.26490397 48.47693848 101.26490397 48.47693848 105.6875 44.625 C106.3475 44.625 107.0075 44.625 107.6875 44.625 C107.6875 43.965 107.6875 43.305 107.6875 42.625 C108.3475 42.625 109.0075 42.625 109.6875 42.625 C109.6875 41.965 109.6875 41.305 109.6875 40.625 C111.6675 39.965 113.6475 39.305 115.6875 38.625 C115.6875 37.965 115.6875 37.305 115.6875 36.625 C122.22334036 33.91383659 128.63646381 32.14492591 135.6875 33.625 C140.35627862 35.86540411 144.62604745 38.40941436 148.6875 41.625 C148.6875 42.285 148.6875 42.945 148.6875 43.625 C149.3475 43.625 150.0075 43.625 150.6875 43.625 C150.6875 44.285 150.6875 44.945 150.6875 45.625 C151.3475 45.955 152.0075 46.285 152.6875 46.625 C154.93658754 51.26884138 156.36423058 55.78082885 157.5625 60.8125 C157.89911026 62.21629689 158.23638259 63.61993513 158.57421875 65.0234375 C158.75130371 65.76432617 158.92838867 66.50521484 159.11083984 67.26855469 C159.72100129 69.76189858 160.366387 72.24414613 161.01953125 74.7265625 C165.46313491 91.73198375 165.46313491 91.73198375 165.6875 100.625 C166.3475 100.625 167.0075 100.625 167.6875 100.625 C168.36429658 102.350227 169.02852 104.08038939 169.6875 105.8125 C170.05875 106.77542969 170.43 107.73835938 170.8125 108.73046875 C171.66386772 111.54682358 171.85822647 113.70664439 171.6875 116.625 C172.3475 116.955 173.0075 117.285 173.6875 117.625 C174.97041857 119.73223729 176.15892128 121.8241442 177.3125 124 C177.63734375 124.59039062 177.9621875 125.18078125 178.296875 125.7890625 C179.80998066 128.61183104 180.6875 130.37391663 180.6875 133.625 C181.3475 133.625 182.0075 133.625 182.6875 133.625 C183.3475 135.935 184.0075 138.245 184.6875 140.625 C185.3475 140.625 186.0075 140.625 186.6875 140.625 C186.81125 141.429375 186.935 142.23375 187.0625 143.0625 C187.371875 144.3309375 187.371875 144.3309375 187.6875 145.625 C188.3475 145.955 189.0075 146.285 189.6875 146.625 C191.26298683 149.25081138 191.6875 150.49599787 191.6875 153.625 C192.3475 153.625 193.0075 153.625 193.6875 153.625 C195.1481285 156.27238916 195.6875 157.51948334 195.6875 160.625 C196.3475 160.625 197.0075 160.625 197.6875 160.625 C199.1481285 163.27238916 199.6875 164.51948334 199.6875 167.625 C200.3475 167.625 201.0075 167.625 201.6875 167.625 C202.0175 168.945 202.3475 170.265 202.6875 171.625 C203.3475 171.625 204.0075 171.625 204.6875 171.625 C206.19269387 174.24714328 207.69181319 176.87244208 209.1875 179.5 C209.83138672 180.61955078 209.83138672 180.61955078 210.48828125 181.76171875 C211.09736328 182.83486328 211.09736328 182.83486328 211.71875 183.9296875 C212.09580078 184.58952637 212.47285156 185.24936523 212.86132812 185.92919922 C213.6875 187.625 213.6875 187.625 213.6875 189.625 C214.3475 189.625 215.0075 189.625 215.6875 189.625 C219.6875 195.03676471 219.6875 195.03676471 219.6875 197.625 C220.3475 197.625 221.0075 197.625 221.6875 197.625 C223.01953125 199.56640625 223.01953125 199.56640625 224.5 202.1875 C228.76810224 209.67095225 228.76810224 209.67095225 234.33203125 216.19140625 C235.6875 217.625 235.6875 217.625 235.6875 219.625 C236.3475 219.625 237.0075 219.625 237.6875 219.625 C238.0175 220.945 238.3475 222.265 238.6875 223.625 C239.3475 223.625 240.0075 223.625 240.6875 223.625 C241.0175 224.945 241.3475 226.265 241.6875 227.625 C242.3475 227.625 243.0075 227.625 243.6875 227.625 C247.6875 232.09558824 247.6875 232.09558824 247.6875 234.625 C248.6775 234.955 249.6675 235.285 250.6875 235.625 C252.29296875 237.18359375 252.29296875 237.18359375 253.875 239.0625 C254.40480469 239.67996094 254.93460937 240.29742187 255.48046875 240.93359375 C256.6875 242.625 256.6875 242.625 256.6875 244.625 C257.3475 244.625 258.0075 244.625 258.6875 244.625 C258.6875 245.285 258.6875 245.945 258.6875 246.625 C259.3475 246.625 260.0075 246.625 260.6875 246.625 C262.02645632 248.28715268 263.35880142 249.95463607 264.6875 251.625 C265.595 252.346875 266.5025 253.06875 267.4375 253.8125 C268.18 254.410625 268.9225 255.00875 269.6875 255.625 C269.6875 256.285 269.6875 256.945 269.6875 257.625 C270.6775 257.955 271.6675 258.285 272.6875 258.625 C272.6875 259.285 272.6875 259.945 272.6875 260.625 C273.6775 260.955 274.6675 261.285 275.6875 261.625 C275.6875 262.285 275.6875 262.945 275.6875 263.625 C276.265 263.7075 276.8425 263.79 277.4375 263.875 C280.3414336 264.84297787 281.72490604 266.31194284 283.6875 268.625 C283.6875 269.285 283.6875 269.945 283.6875 270.625 C284.244375 270.686875 284.80125 270.74875 285.375 270.8125 C288.66022942 271.96676979 290.295303 274.11888886 292.6875 276.625 C295.48159368 279.01162169 298.31829928 281.32963943 301.1875 283.625 C302.0125 284.285 302.8375 284.945 303.6875 285.625 C304.23019531 286.05039062 304.77289063 286.47578125 305.33203125 286.9140625 C306.82072514 288.10641217 308.25828225 289.36197036 309.6875 290.625 C309.6875 291.285 309.6875 291.945 309.6875 292.625 C310.285625 292.91375 310.88375 293.2025 311.5 293.5 C313.6875 294.625 313.6875 294.625 316.6875 296.625 C316.6875 297.285 316.6875 297.945 316.6875 298.625 C317.3475 298.625 318.0075 298.625 318.6875 298.625 C320.05113208 300.60446592 321.38168644 302.6069245 322.6875 304.625 C323.16445313 305.08132813 323.64140625 305.53765625 324.1328125 306.0078125 C331.8469688 314.03208564 335.62558864 328.79364432 335.70263672 339.78417969 C335.32256219 346.80321844 334.02856383 353.43784477 330.6875 359.625 C330.34976562 360.36234375 330.01203125 361.0996875 329.6640625 361.859375 C325.73186433 369.93489608 320.39260984 372.67489739 312.25 375.875 C307.34484296 377.55042401 302.83637254 378.29848613 297.6875 378.625 C296.78128906 378.72683594 295.87507813 378.82867187 294.94140625 378.93359375 C274.5113702 381.04166116 252.90829904 378.23958593 232.89355469 374.07348633 C230.15012594 373.51575297 227.39412152 373.096442 224.625 372.6875 C220.11996407 371.95398774 215.97303441 370.88044198 211.68359375 369.3359375 C209.96263211 368.72299226 208.20154305 368.22493467 206.4375 367.75 C200.73063262 366.03793978 195.21507947 363.84261224 189.6875 361.625 C188.66269531 361.22667969 187.63789063 360.82835937 186.58203125 360.41796875 C180.76562356 357.8990205 175.35389858 354.54296857 169.875 351.375 C168.62876235 350.65805009 167.38233988 349.94142136 166.13574219 349.22509766 C162.93623685 347.38537056 159.73938608 345.54108142 156.54315186 343.69567871 C153.66720984 342.0363104 150.78856027 340.38165541 147.91015625 338.7265625 C136.49037171 332.15498546 125.09730839 325.53868146 113.72119141 318.8918457 C103.16102916 312.7255487 92.56607454 306.61994961 81.96972656 300.51611328 C76.54090058 297.38819852 71.11430719 294.25641552 65.6875 291.125 C63.52084417 289.87498121 61.3541775 288.62498122 59.1875 287.375 C46.1875 279.875 33.1875 272.375 20.1875 264.875 C19.11483887 264.25616943 18.04217773 263.63733887 16.93701172 262.99975586 C14.77192929 261.75064482 12.60689018 260.50145871 10.44189453 259.25219727 C5.00134294 256.11297691 -0.43997216 252.97509437 -5.8828125 249.83984375 C-19.5014481 241.99325793 -33.10809261 234.12678451 -46.66552734 226.17480469 C-49.1550307 224.71719841 -51.64941574 223.26828219 -54.14453125 221.8203125 C-55.53417404 221.0057538 -56.92352236 220.19069239 -58.3125 219.375 C-58.93600342 219.01615723 -59.55950684 218.65731445 -60.2019043 218.28759766 C-61.60663003 217.45579012 -62.96621942 216.54841039 -64.3125 215.625 C-64.3125 214.965 -64.3125 214.305 -64.3125 213.625 C-64.99957031 213.40972656 -65.68664062 213.19445312 -66.39453125 212.97265625 C-70.16788671 211.22994188 -72.9051978 208.79980523 -76 206.0625 C-79.89855233 202.47580297 -79.89855233 202.47580297 -84.3125 199.625 C-84.3125 198.965 -84.3125 198.305 -84.3125 197.625 C-85.3025 197.295 -86.2925 196.965 -87.3125 196.625 C-87.3125 195.965 -87.3125 195.305 -87.3125 194.625 C-87.9725 194.625 -88.6325 194.625 -89.3125 194.625 C-90.9375 193.25 -90.9375 193.25 -92.3125 191.625 C-92.3125 190.965 -92.3125 190.305 -92.3125 189.625 C-93.3025 189.295 -94.2925 188.965 -95.3125 188.625 C-95.3125 187.965 -95.3125 187.305 -95.3125 186.625 C-95.9725 186.295 -96.6325 185.965 -97.3125 185.625 C-99.4375 183.6875 -99.4375 183.6875 -101.3125 181.625 C-101.3125 180.965 -101.3125 180.305 -101.3125 179.625 C-101.9725 179.625 -102.6325 179.625 -103.3125 179.625 C-107.3125 174.21323529 -107.3125 174.21323529 -107.3125 171.625 C-107.9725 171.295 -108.6325 170.965 -109.3125 170.625 C-118.83149364 159.93323507 -126.09156939 142.213651 -125.625 127.75 C-124.44604748 119.73312287 -120.65864944 111.70624499 -115.3125 105.625 C-113.125 104.37890625 -113.125 104.37890625 -111.3125 103.625 C-111.3125 102.965 -111.3125 102.305 -111.3125 101.625 C-109.3325 101.13 -109.3325 101.13 -107.3125 100.625 C-107.3125 99.965 -107.3125 99.305 -107.3125 98.625 C-105.21230986 97.15190889 -103.13482271 95.81190365 -100.9375 94.5 C-100.33421875 94.12746094 -99.7309375 93.75492187 -99.109375 93.37109375 C-94.58284684 90.625 -94.58284684 90.625 -92.3125 90.625 C-92.3125 89.965 -92.3125 89.305 -92.3125 88.625 C-90.30078125 87.1875 -90.30078125 87.1875 -87.625 85.625 C-86.75488281 85.109375 -85.88476562 84.59375 -84.98828125 84.0625 C-82.47602805 82.71285157 -79.98046085 81.62488443 -77.3125 80.625 C-77.3125 79.965 -77.3125 79.305 -77.3125 78.625 C-76.36375 78.3775 -75.415 78.13 -74.4375 77.875 C-71.22411165 76.963822 -71.22411165 76.963822 -70.125 74.5625 C-69.856875 73.923125 -69.58875 73.28375 -69.3125 72.625 C-68.3225 72.295 -67.3325 71.965 -66.3125 71.625 C-66.18875 71.026875 -66.065 70.42875 -65.9375 69.8125 C-65.02705134 66.6259297 -62.90282761 65.59858294 -60.3125 63.625 C-58.67573743 61.6649719 -58.67573743 61.6649719 -57.3125 59.625 C-55.75 57.375 -55.75 57.375 -54.3125 55.625 C-53.6525 55.625 -52.9925 55.625 -52.3125 55.625 C-52.044375 54.655625 -51.77625 53.68625 -51.5 52.6875 C-50.9121875 51.1715625 -50.9121875 51.1715625 -50.3125 49.625 C-49.3225 49.295 -48.3325 48.965 -47.3125 48.625 C-46.58027456 46.98607715 -45.9273073 45.31148576 -45.3125 43.625 C-43.12267708 39.51912257 -40.80349614 35.48714138 -38.49047852 31.44970703 C-37.37634982 29.5023593 -36.27094011 27.55023775 -35.16601562 25.59765625 C-34.45625307 24.35386756 -33.74598376 23.11036787 -33.03515625 21.8671875 C-32.39328369 20.7416748 -31.75141113 19.61616211 -31.09008789 18.45654297 C-29.61505407 16.10694233 -28.31025919 14.49023844 -26.3125 12.625 C-25.755625 11.7175 -25.19875 10.81 -24.625 9.875 C-18.63802714 1.46087597 -10.10855163 -6.03309683 0 0 Z M-11.3125 24.625 C-16.58109081 31.87804945 -21.25944118 39.36987619 -25.75 47.125 C-26.38615234 48.2078125 -27.02230469 49.290625 -27.67773438 50.40625 C-28.27779297 51.4375 -28.87785156 52.46875 -29.49609375 53.53125 C-30.03806396 54.46259766 -30.58003418 55.39394531 -31.13842773 56.35351562 C-32.46555525 58.49495549 -32.46555525 58.49495549 -32.3125 60.625 C-33.7975 61.12 -33.7975 61.12 -35.3125 61.625 C-36.34682904 63.60746398 -37.34488392 65.60913316 -38.3125 67.625 C-39.3125 68.625 -40.3125 69.625 -41.3125 70.625 C-42.50277984 73.22415538 -42.50277984 73.22415538 -43.3125 75.625 C-43.9725 75.625 -44.6325 75.625 -45.3125 75.625 C-45.580625 76.429375 -45.84875 77.23375 -46.125 78.0625 C-46.516875 78.908125 -46.90875 79.75375 -47.3125 80.625 C-48.7975 81.12 -48.7975 81.12 -50.3125 81.625 C-50.3125 82.285 -50.3125 82.945 -50.3125 83.625 C-50.9725 83.625 -51.6325 83.625 -52.3125 83.625 C-53.66636936 85.27502828 -54.99928142 86.9424387 -56.3125 88.625 C-57.3025 89.12 -57.3025 89.12 -58.3125 89.625 C-58.3125 90.285 -58.3125 90.945 -58.3125 91.625 C-59.488125 92.0890625 -59.488125 92.0890625 -60.6875 92.5625 C-63.23580128 93.55375038 -63.23580128 93.55375038 -65.3125 94.625 C-65.3125 95.615 -65.3125 96.605 -65.3125 97.625 C-64.6525 97.625 -63.9925 97.625 -63.3125 97.625 C-63.044375 98.346875 -62.77625 99.06875 -62.5 99.8125 C-61.31348638 102.62266383 -60.03764361 105.10916557 -58.3125 107.625 C-57.6525 107.625 -56.9925 107.625 -56.3125 107.625 C-56.085625 108.305625 -55.85875 108.98625 -55.625 109.6875 C-54.00023854 113.3238709 -51.98446743 116.65329263 -49.3125 119.625 C-48.6525 119.625 -47.9925 119.625 -47.3125 119.625 C-47.209375 120.223125 -47.10625 120.82125 -47 121.4375 C-46.21425967 123.93758286 -45.34331147 125.00035082 -43.3125 126.625 C-42.6525 126.625 -41.9925 126.625 -41.3125 126.625 C-41.3125 127.285 -41.3125 127.945 -41.3125 128.625 C-40.6525 128.625 -39.9925 128.625 -39.3125 128.625 C-38.6525 130.275 -37.9925 131.925 -37.3125 133.625 C-36.6525 133.625 -35.9925 133.625 -35.3125 133.625 C-35.3125 134.285 -35.3125 134.945 -35.3125 135.625 C-33.65034732 136.96395632 -31.98286393 138.29630142 -30.3125 139.625 C-29.70148438 140.40617187 -29.09046875 141.18734375 -28.4609375 141.9921875 C-26.23828058 144.71595253 -23.93859876 146.75715158 -21.1875 148.9375 C-20.31867188 149.63488281 -19.44984375 150.33226562 -18.5546875 151.05078125 C-16.49629581 152.8165367 -16.49629581 152.8165367 -14.3125 152.625 C-14.3125 153.285 -14.3125 153.945 -14.3125 154.625 C-13.219375 155.223125 -12.12625 155.82125 -11 156.4375 C-9.03572088 157.51229423 -7.48460981 158.44630792 -5.92724609 160.06323242 C-3.13303447 162.76576822 0.33034778 164.3284088 3.75 166.125 C4.51425293 166.5286377 5.27850586 166.93227539 6.06591797 167.34814453 C10.82518373 169.80691369 15.43172847 171.7701401 20.640625 173.08984375 C23.79692042 173.91505839 26.69503644 175.33514502 29.6875 176.625 C33.6674722 178.01944281 37.67714707 179.3208999 41.6875 180.625 C48.15269799 182.7273749 54.4568802 184.89227202 60.6875 187.625 C62.70738149 188.37755972 64.72834059 189.12722959 66.75 189.875 C84.18797194 196.59258237 106.55473808 206.96461346 119.6875 220.625 C122.45475732 222.93104777 125.29865252 225.06474458 128.25 227.125 C131.01690238 229.06784667 133.29599415 231.23349415 135.6875 233.625 C136.3475 233.625 137.0075 233.625 137.6875 233.625 C137.6875 234.285 137.6875 234.945 137.6875 235.625 C140.74308423 238.65017909 140.74308423 238.65017909 144.6875 239.625 C145.0175 240.615 145.3475 241.605 145.6875 242.625 C147.32010714 243.99982707 148.98975062 245.33147667 150.6875 246.625 C151.5228125 247.49125 151.5228125 247.49125 152.375 248.375 C153.62679598 249.85488506 153.62679598 249.85488506 155.6875 249.625 C156.0175 250.615 156.3475 251.605 156.6875 252.625 C157.3475 252.625 158.0075 252.625 158.6875 252.625 C158.6875 253.285 158.6875 253.945 158.6875 254.625 C160.34965268 255.96395632 162.01713607 257.29630142 163.6875 258.625 C164.409375 259.5325 165.13125 260.44 165.875 261.375 C166.473125 262.1175 167.07125 262.86 167.6875 263.625 C168.3475 263.625 169.0075 263.625 169.6875 263.625 C169.6875 264.285 169.6875 264.945 169.6875 265.625 C171.33752828 266.97886936 173.0049387 268.31178142 174.6875 269.625 C175.0175 270.285 175.3475 270.945 175.6875 271.625 C176.3475 271.625 177.0075 271.625 177.6875 271.625 C178.0175 272.615 178.3475 273.605 178.6875 274.625 C179.3475 274.625 180.0075 274.625 180.6875 274.625 C180.6875 275.285 180.6875 275.945 180.6875 276.625 C182.33752828 277.97886936 184.0049387 279.31178142 185.6875 280.625 C186.0175 281.285 186.3475 281.945 186.6875 282.625 C187.3475 282.625 188.0075 282.625 188.6875 282.625 C189.0175 283.615 189.3475 284.605 189.6875 285.625 C190.3475 285.625 191.0075 285.625 191.6875 285.625 C191.6875 286.285 191.6875 286.945 191.6875 287.625 C194.74308423 290.65017909 194.74308423 290.65017909 198.6875 291.625 C199.0175 292.615 199.3475 293.605 199.6875 294.625 C201.47394666 296.29373882 201.47394666 296.29373882 203.625 297.8125 C204.33527344 298.34230469 205.04554688 298.87210937 205.77734375 299.41796875 C207.59269485 300.8030627 207.59269485 300.8030627 209.6875 300.625 C209.6875 301.285 209.6875 301.945 209.6875 302.625 C210.780625 303.223125 211.87375 303.82125 213 304.4375 C214.95677103 305.50818604 216.51106129 306.44268729 218.06616211 308.04956055 C219.76308518 309.69844544 221.41749561 310.80055846 223.453125 312 C224.17886719 312.42796875 224.90460938 312.8559375 225.65234375 313.296875 C226.40644531 313.73515625 227.16054688 314.1734375 227.9375 314.625 C228.67613281 315.06328125 229.41476562 315.5015625 230.17578125 315.953125 C234.57112557 318.52676577 238.9536017 320.7162575 243.6875 322.625 C245.47607422 323.3675 245.47607422 323.3675 247.30078125 324.125 C254.34478594 326.98128068 261.3342325 329.6657024 268.6875 331.625 C269.58339844 331.88023437 270.47929687 332.13546875 271.40234375 332.3984375 C278.59521917 334.3487205 285.73369903 335.37603029 293.12109375 336.1953125 C296.6875 336.625 296.6875 336.625 299.234375 337.17578125 C302.35469149 337.74717679 305.33045225 337.71951563 308.5 337.6875 C310.24216797 337.67396484 310.24216797 337.67396484 312.01953125 337.66015625 C312.89996094 337.64855469 313.78039062 337.63695312 314.6875 337.625 C313.98560458 326.57014717 310.06343471 318.86673291 302.6875 310.625 C300.15307594 308.39683014 300.15307594 308.39683014 297.6875 306.625 C296.02083333 304.95833333 294.35416667 303.29166667 292.6875 301.625 C290.70489574 299.93767723 288.7042658 298.27133943 286.6875 296.625 C286.14480469 296.15449219 285.60210937 295.68398438 285.04296875 295.19921875 C282.26695984 292.49346012 282.26695984 292.49346012 278.6875 291.625 C278.6875 290.965 278.6875 290.305 278.6875 289.625 C277.0375 288.965 275.3875 288.305 273.6875 287.625 C273.6875 286.965 273.6875 286.305 273.6875 285.625 C270.63191577 282.59982091 270.63191577 282.59982091 266.6875 281.625 C266.3575 280.635 266.0275 279.645 265.6875 278.625 C264.0478279 277.25860658 262.37639872 275.9300581 260.6875 274.625 C257.69874065 271.79354377 254.98144633 268.81517148 252.3125 265.6875 C249.46922559 262.38905228 246.46329868 259.57508055 243.0703125 256.8515625 C241.6875 255.625 241.6875 255.625 240.6875 253.625 C240.0275 253.625 239.3675 253.625 238.6875 253.625 C238.39875 253.026875 238.11 252.42875 237.8125 251.8125 C236.64007974 249.43172208 236.64007974 249.43172208 234.6875 246.625 C234.0275 246.625 233.3675 246.625 232.6875 246.625 C232.584375 246.026875 232.48125 245.42875 232.375 244.8125 C231.58925967 242.31241714 230.71831147 241.24964918 228.6875 239.625 C228.0275 239.625 227.3675 239.625 226.6875 239.625 C226.6875 238.965 226.6875 238.305 226.6875 237.625 C226.0275 237.625 225.3675 237.625 224.6875 237.625 C224.3575 236.305 224.0275 234.985 223.6875 233.625 C223.0275 233.625 222.3675 233.625 221.6875 233.625 C221.3575 232.635 221.0275 231.645 220.6875 230.625 C215.07114142 231.45155843 210.33887163 234.02203815 205.2578125 236.4453125 C199.58027006 238.32126197 195.00994084 237.04429129 189.6875 234.625 C189.27426352 224.08746973 189.27426352 224.08746973 191.6875 220.625 C195.125 219.375 195.125 219.375 198.6875 218.625 C199.6775 218.295 200.6675 217.965 201.6875 217.625 C201.6875 216.965 201.6875 216.305 201.6875 215.625 C203.6675 215.295 205.6475 214.965 207.6875 214.625 C206.28990095 211.07981116 206.28990095 211.07981116 204.6875 207.625 C204.0275 207.625 203.3675 207.625 202.6875 207.625 C202.0275 205.645 201.3675 203.665 200.6875 201.625 C200.0275 201.625 199.3675 201.625 198.6875 201.625 C198.3575 200.635 198.0275 199.645 197.6875 198.625 C196.68589844 199.04652344 195.68429687 199.46804688 194.65234375 199.90234375 C193.31006912 200.45614936 191.96761133 201.00951117 190.625 201.5625 C189.96822266 201.84029297 189.31144531 202.11808594 188.63476562 202.40429688 C183.18066807 204.63429735 178.17192075 206.31511687 172.3125 204.6875 C169.6875 202.625 169.6875 202.625 168.5625 198.8125 C168.42502829 195.6907467 168.79664327 194.36702501 170.0625 191.375 C173.51361672 187.75954439 177.066882 186.3392259 181.6875 184.625 C183.35513273 183.96075358 185.02205154 183.29470414 186.6875 182.625 C185.7811096 180.70345236 184.86193196 178.78793346 183.9375 176.875 C183.42703125 175.80765625 182.9165625 174.7403125 182.390625 173.640625 C180.74861568 170.733214 179.25878696 168.74009089 176.6875 166.625 C174.46891747 166.76141377 174.46891747 166.76141377 172.6875 167.625 C172.6875 168.285 172.6875 168.945 172.6875 169.625 C172.11902344 169.73457031 171.55054688 169.84414062 170.96484375 169.95703125 C167.03375252 170.76425032 163.6497244 171.54997886 160.125 173.5 C156.44727099 174.7036204 155.73065888 174.70283461 152.3125 173.3125 C150.03464507 171.97674818 148.92804302 171.16932741 147.85546875 168.7421875 C147.27818684 165.40537121 147.53077915 163.0847145 148.625 159.875 C151.53730587 156.69793905 154.77108098 155.31403982 158.6875 153.625 C159.93660156 153.06232422 159.93660156 153.06232422 161.2109375 152.48828125 C163.36383628 151.52049552 165.52498394 150.57110077 167.6875 149.625 C165.0475 144.345 162.4075 139.065 159.6875 133.625 C157.2125 134.12 157.2125 134.12 154.6875 134.625 C154.6875 135.285 154.6875 135.945 154.6875 136.625 C153.883125 136.7075 153.07875 136.79 152.25 136.875 C149.15082699 137.52745748 147.05488744 138.32828229 144.25 139.6875 C140.20681339 141.54940442 137.19158821 142.23131957 132.6875 141.625 C129.13446027 140.20378411 127.99351874 139.19878514 126.1875 135.8125 C125.53369275 131.64447876 126.25752154 130.04215721 128.6875 126.625 C131.875 124.75 131.875 124.75 134.6875 123.625 C134.6875 122.965 134.6875 122.305 134.6875 121.625 C135.244375 121.52703125 135.80125 121.4290625 136.375 121.328125 C142.0686081 120.21248557 146.59521095 118.40261221 151.6875 115.625 C150.55476461 111.18119192 149.40432385 107.36063279 146.6875 103.625 C146.0275 103.625 145.3675 103.625 144.6875 103.625 C144.3575 102.635 144.0275 101.645 143.6875 100.625 C143.0275 100.625 142.3675 100.625 141.6875 100.625 C141.3575 99.635 141.0275 98.645 140.6875 97.625 C133.6715007 93.50691345 126.6568693 93.68744958 118.8671875 95.52734375 C115.44460654 96.46858573 112.06141139 97.52170635 108.6875 98.625 C108.6875 99.285 108.6875 99.945 108.6875 100.625 C107.83285156 100.73070312 106.97820312 100.83640625 106.09765625 100.9453125 C102.42536307 101.67724722 99.51527544 102.92075235 96.125 104.5 C78.66949342 112.2341818 57.74192005 114.52520506 39.6875 107.625 C38.594375 107.2125 37.50125 106.8 36.375 106.375 C31.77738148 104.36896362 27.54350544 101.64564069 23.26171875 99.05078125 C20.88635495 97.46349485 20.88635495 97.46349485 18.6875 97.625 C18.3575 96.635 18.0275 95.645 17.6875 94.625 C17.0275 94.625 16.3675 94.625 15.6875 94.625 C15.6875 93.965 15.6875 93.305 15.6875 92.625 C14.35416667 90.95833333 14.35416667 90.95833333 12.6875 89.625 C12.0275 89.625 11.3675 89.625 10.6875 89.625 C10.3575 88.635 10.0275 87.645 9.6875 86.625 C9.0275 86.625 8.3675 86.625 7.6875 86.625 C6.35416667 83.95833333 5.02083333 81.29166667 3.6875 78.625 C3.0275 78.625 2.3675 78.625 1.6875 78.625 C1.0275 76.315 0.3675 74.005 -0.3125 71.625 C-0.9725 71.625 -1.6325 71.625 -2.3125 71.625 C-2.42464844 70.820625 -2.53679687 70.01625 -2.65234375 69.1875 C-3.15235152 66.48923322 -3.74046414 63.99784001 -4.50390625 61.375 C-7.40520868 51.38629019 -8.73253126 43.05577631 -8.3125 32.625 C-8.45037061 30.15549405 -8.75062957 28.04104284 -9.3125 25.625 C-9.9725 25.295 -10.6325 24.965 -11.3125 24.625 Z M127.25 53.125 C124.01114504 55.0209151 121.44086324 57.06373187 118.6875 59.625 C118.6875 60.285 118.6875 60.945 118.6875 61.625 C117.6975 61.955 116.7075 62.285 115.6875 62.625 C112.67678321 67.1866921 110.98263786 71.33652042 109.6875 76.625 C113.15992684 77.78247561 114.59202721 77.37569807 118.125 76.625 C125.75197001 75.24417554 133.20124643 75.55921776 140.6875 77.625 C140.26147439 75.08093219 139.82212329 72.54037215 139.375 70 C139.25705078 69.28714844 139.13910156 68.57429688 139.01757812 67.83984375 C138.02520779 62.29274801 136.783344 57.38992126 132.3125 53.625 C129.7585811 52.38328935 129.7585811 52.38328935 127.25 53.125 Z M-88.3125 109.625 C-88.3125 110.285 -88.3125 110.945 -88.3125 111.625 C-89.01375 111.893125 -89.715 112.16125 -90.4375 112.4375 C-97.8027437 115.47966588 -102.05298151 118.19618124 -105.25 125.6875 C-107.13229125 131.614715 -105.20026799 136.90361087 -103.3125 142.625 C-102.6525 142.625 -101.9925 142.625 -101.3125 142.625 C-101.18875 143.346875 -101.065 144.06875 -100.9375 144.8125 C-100.3220069 147.58221894 -99.42805626 150.0220354 -98.3125 152.625 C-97.6525 152.625 -96.9925 152.625 -96.3125 152.625 C-95.9825 154.275 -95.6525 155.925 -95.3125 157.625 C-94.6525 157.625 -93.9925 157.625 -93.3125 157.625 C-92.6525 159.605 -91.9925 161.585 -91.3125 163.625 C-90.6525 163.625 -89.9925 163.625 -89.3125 163.625 C-88.9825 164.945 -88.6525 166.265 -88.3125 167.625 C-87.6525 167.625 -86.9925 167.625 -86.3125 167.625 C-86.3125 168.285 -86.3125 168.945 -86.3125 169.625 C-85.6525 169.625 -84.9925 169.625 -84.3125 169.625 C-83.6525 171.275 -82.9925 172.925 -82.3125 174.625 C-81.6525 174.625 -80.9925 174.625 -80.3125 174.625 C-80.3125 175.285 -80.3125 175.945 -80.3125 176.625 C-77.61614667 179.0762303 -75.27298036 181.15773928 -72 182.75 C-70.3125 183.625 -70.3125 183.625 -69.3125 186.625 C-68.6525 186.625 -67.9925 186.625 -67.3125 186.625 C-66.9825 187.615 -66.6525 188.605 -66.3125 189.625 C-64.36348973 191.28696899 -62.43897627 192.80946502 -60.375 194.3125 C-59.82392578 194.72822266 -59.27285156 195.14394531 -58.70507812 195.57226562 C-55.81617262 197.90192366 -55.81617262 197.90192366 -52.3125 198.625 C-51.9825 199.615 -51.6525 200.605 -51.3125 201.625 C-49.42182188 203.02473731 -49.42182188 203.02473731 -47.02734375 204.26953125 C-46.11686279 204.77403809 -45.20638184 205.27854492 -44.26831055 205.79833984 C-43.27226807 206.3392627 -42.27622559 206.88018555 -41.25 207.4375 C-39.1293463 208.61172576 -37.00958093 209.78755703 -34.890625 210.96484375 C-33.79685547 211.57054199 -32.70308594 212.17624023 -31.57617188 212.80029297 C-26.51084092 215.63230101 -21.50477026 218.56267997 -16.5 221.5 C-4.89381813 228.29510868 6.75143965 235.02090465 18.40527344 241.73388672 C23.83409942 244.86180148 29.26069281 247.99358448 34.6875 251.125 C36.85415583 252.37501879 39.0208225 253.62501878 41.1875 254.875 C45.52083333 257.375 49.85416667 259.875 54.1875 262.375 C55.26016113 262.99383057 56.33282227 263.61266113 57.43798828 264.25024414 C59.60307071 265.49935518 61.76810982 266.74854129 63.93310547 267.99780273 C69.37365706 271.13702309 74.81497216 274.27490563 80.2578125 277.41015625 C91.7419882 284.02722892 103.20946894 290.67133977 114.65332031 297.35791016 C127.43469295 304.82104203 140.26501437 312.19940004 153.09130859 319.58496094 C156.4778867 321.53520449 159.86396326 323.48631671 163.25 325.4375 C164.87156006 326.37070068 164.87156006 326.37070068 166.52587891 327.32275391 C171.33077835 330.09211652 176.12600268 332.87398833 180.88671875 335.71875 C181.66523193 336.1830542 182.44374512 336.6473584 183.24584961 337.12573242 C184.64698112 337.96435107 186.04523764 338.80780423 187.43969727 339.6574707 C191.10166652 341.85022343 194.59599186 343.42094391 198.6875 344.625 C199.37972656 344.85960937 200.07195312 345.09421875 200.78515625 345.3359375 C202.22571713 345.82280698 203.6688044 346.30221831 205.11328125 346.77734375 C206.88574471 347.36099257 208.65379573 347.95815776 210.41796875 348.56640625 C219.80191837 351.66201705 229.35362957 353.4350497 239.06933594 355.15405273 C240.83027904 355.47080574 242.58879978 355.80130166 244.34472656 356.14477539 C259.12702187 358.9986906 274.52359063 360.14329211 289.5625 359.375 C290.33400391 359.33656982 291.10550781 359.29813965 291.90039062 359.25854492 C295.65782508 358.99836899 298.40130031 358.42240914 301.6875 356.625 C300.44214478 356.42922363 300.44214478 356.42922363 299.17163086 356.22949219 C261.80436778 350.30879646 261.80436778 350.30879646 246.6875 343.625 C245.93082031 343.295 245.17414063 342.965 244.39453125 342.625 C242.93329654 341.98115132 241.4750114 341.33054461 240.02050781 340.67163086 C238.57560752 340.02342161 237.12551498 339.38649772 235.66772461 338.76782227 C229.46685251 336.11509341 223.65373077 332.92450782 217.8125 329.5625 C216.87664062 329.03333984 215.94078125 328.50417969 214.9765625 327.95898438 C214.079375 327.44529297 213.1821875 326.93160156 212.2578125 326.40234375 C211.45102051 325.94077881 210.64422852 325.47921387 209.81298828 325.00366211 C207.80327768 323.70009724 206.33763736 322.34401521 204.6875 320.625 C201.44536209 318.32546179 201.44536209 318.32546179 197.6875 317.625 C197.6875 316.965 197.6875 316.305 197.6875 315.625 C195.54036797 313.91170385 195.54036797 313.91170385 192.875 312.1875 C187.96718102 308.90853869 187.96718102 308.90853869 185.98828125 306.90234375 C184.75351232 305.39145014 184.75351232 305.39145014 182.6875 305.625 C182.3575 304.635 182.0275 303.645 181.6875 302.625 C181.0275 302.625 180.3675 302.625 179.6875 302.625 C179.6875 301.965 179.6875 301.305 179.6875 300.625 C178.02534732 299.28604368 176.35786393 297.95369858 174.6875 296.625 C174.06875 295.84125 173.45 295.0575 172.8125 294.25 C170.5100667 291.40581769 168.00673205 289.25452666 165.17578125 286.95703125 C163.6875 285.625 163.6875 285.625 162.6875 283.625 C162.0275 283.625 161.3675 283.625 160.6875 283.625 C160.3575 282.635 160.0275 281.645 159.6875 280.625 C159.0275 280.625 158.3675 280.625 157.6875 280.625 C157.6875 279.965 157.6875 279.305 157.6875 278.625 C156.25330496 277.3909252 154.81304257 276.16284628 153.3359375 274.98046875 C149.96071329 272.20510666 147.01465705 268.96737365 144 265.8125 C141.97587851 263.39593338 141.97587851 263.39593338 139.6875 263.625 C139.3575 262.635 139.0275 261.645 138.6875 260.625 C138.0275 260.625 137.3675 260.625 136.6875 260.625 C136.3575 259.635 136.0275 258.645 135.6875 257.625 C132.63241974 254.59222801 132.63241974 254.59222801 128.6875 253.625 C128.3575 252.635 128.0275 251.645 127.6875 250.625 C124.63241974 247.59222801 124.63241974 247.59222801 120.6875 246.625 C120.3575 245.635 120.0275 244.645 119.6875 243.625 C117.73848973 241.96303101 115.81397627 240.44053498 113.75 238.9375 C113.19892578 238.52177734 112.64785156 238.10605469 112.08007812 237.67773438 C109.19117262 235.34807634 109.19117262 235.34807634 105.6875 234.625 C105.3575 233.635 105.0275 232.645 104.6875 231.625 C101.47032646 229.2949963 101.47032646 229.2949963 97.6875 228.625 C97.6875 227.965 97.6875 227.305 97.6875 226.625 C94.07874764 224.52107179 90.46744138 222.42161699 86.85375977 220.32617188 C85.62616943 219.61351309 84.3992707 218.89966154 83.1730957 218.18457031 C81.40498824 217.15371269 79.63439342 216.12724708 77.86328125 215.1015625 C76.80020752 214.48361816 75.73713379 213.86567383 74.6418457 213.22900391 C72.02234098 211.80679533 69.4747467 210.66623803 66.6875 209.625 C65.54796875 209.16222656 64.4084375 208.69945312 63.234375 208.22265625 C57.14697813 205.75673381 51.07451901 203.3256746 44.81640625 201.3203125 C42.48119602 200.55761999 40.18057018 199.72310773 37.875 198.875 C34.21453938 197.52886172 30.54255735 196.22409366 26.85546875 194.953125 C25.55089722 194.50211426 25.55089722 194.50211426 24.2199707 194.04199219 C22.49175659 193.44565115 20.76247811 192.8523828 19.03198242 192.26269531 C5.71273843 187.65799363 -8.77064485 181.78082637 -19.76171875 172.8125 C-21.78521302 171.26302328 -23.8898384 170.38208175 -26.3125 169.625 C-26.3125 168.965 -26.3125 168.305 -26.3125 167.625 C-27.9625 166.965 -29.6125 166.305 -31.3125 165.625 C-31.3125 164.965 -31.3125 164.305 -31.3125 163.625 C-33.01010648 162.39340314 -34.71202093 161.1670289 -36.44140625 159.98046875 C-39.01586935 158.11546104 -41.126266 155.92629895 -43.3125 153.625 C-44.1375 152.820625 -44.9625 152.01625 -45.8125 151.1875 C-47.68231005 149.2709447 -49.33491847 147.39263118 -51 145.3125 C-52.1446875 143.9821875 -52.1446875 143.9821875 -53.3125 142.625 C-53.9725 142.625 -54.6325 142.625 -55.3125 142.625 C-55.60125 142.026875 -55.89 141.42875 -56.1875 140.8125 C-57.35992026 138.43172208 -57.35992026 138.43172208 -59.3125 135.625 C-59.9725 135.625 -60.6325 135.625 -61.3125 135.625 C-61.4671875 134.7278125 -61.4671875 134.7278125 -61.625 133.8125 C-62.41074033 131.31241714 -63.28168853 130.24964918 -65.3125 128.625 C-65.9725 128.625 -66.6325 128.625 -67.3125 128.625 C-67.60125 127.861875 -67.89 127.09875 -68.1875 126.3125 C-69.27519013 123.47470692 -69.27519013 123.47470692 -71.3125 120.625 C-71.9725 120.625 -72.6325 120.625 -73.3125 120.625 C-73.8075 118.645 -73.8075 118.645 -74.3125 116.625 C-74.9725 116.625 -75.6325 116.625 -76.3125 116.625 C-76.580625 115.8825 -76.84875 115.14 -77.125 114.375 C-78.2732472 111.71590121 -79.34751375 109.74718515 -81.3125 107.625 C-84.41801666 107.625 -85.66511084 108.1643715 -88.3125 109.625 Z " fill="#14B784" transform="translate(128.3125,58.375)"/>
<path d="M0 0 C7.20178585 8.2478553 6.40088008 22.7948922 6.62158203 33.14599609 C6.75558652 38.30844888 7.26720537 43.04912478 8.52905273 48.06298828 C9 50 9 50 9.5 53.5 C9.665 54.325 9.83 55.15 10 56 C10.66 56.33 11.32 56.66 12 57 C13.2890625 58.99609375 13.2890625 58.99609375 14.625 61.4375 C15.07101563 62.24058594 15.51703125 63.04367188 15.9765625 63.87109375 C17 66 17 66 17 68 C16.34 68 15.68 68 15 68 C14.67 67.01 14.34 66.02 14 65 C13.34 64.67 12.68 64.34 12 64 C10.78125 61.8125 10.78125 61.8125 9.5 59 C8.86578125 57.63875 8.86578125 57.63875 8.21875 56.25 C4.65528066 46.74741509 4.38579424 36.99420312 3.7890625 26.94921875 C3.26237252 16.17285031 3.26237252 16.17285031 0 6 C-0.039992 4.00039988 -0.04346799 1.99952758 0 0 Z " fill="#39A394" transform="translate(133,63)"/>
<path d="M0 0 C20.13 0 40.26 0 61 0 C56.56748723 2.21625638 52.83638674 2.59340112 48 3 C47.08476562 3.10441406 46.16953125 3.20882813 45.2265625 3.31640625 C30.14650018 4.84767222 14.92430548 3.32909616 0 1 C0 0.67 0 0.34 0 0 Z " fill="#2CB59C" transform="translate(378,434)"/>
<path d="M0 0 C0.66 0 1.32 0 2 0 C2.806058 3.57548651 3.15459371 6.9439267 3.24609375 10.60546875 C3.27896484 11.67216797 3.31183594 12.73886719 3.34570312 13.83789062 C3.40636332 16.05134254 3.46371537 18.26488787 3.51757812 20.47851562 C3.73098132 27.18259713 4.43073975 33.47440871 6 40 C6.66 40 7.32 40 8 40 C8.33 42.64 8.66 45.28 9 48 C8.34 48 7.68 48 7 48 C3.0102741 35.86331474 -0.26893452 24.72135683 0 11.8125 C0 9.24576265 -0.20006152 6.84956933 -0.5625 4.3125 C-0.706875 3.219375 -0.85125 2.12625 -1 1 C-0.67 0.67 -0.34 0.34 0 0 Z " fill="#28B293" transform="translate(119,82)"/>
<path d="M0 0 C1.36421031 2.72842061 0.87807211 4.60953318 0.5625 7.625 C0.40974609 9.12933594 0.40974609 9.12933594 0.25390625 10.6640625 C0.17011719 11.43492187 0.08632813 12.20578125 0 13 C2.52234319 12.91218733 5.0415165 12.80521993 7.5625 12.6875 C8.26697266 12.66494141 8.97144531 12.64238281 9.69726562 12.61914062 C13.4475367 12.42903472 16.41244616 11.97883474 19.83984375 10.39453125 C23 9 23 9 26 10 C10.8688159 18.12600627 10.8688159 18.12600627 3 16 C0.25 14.9375 0.25 14.9375 -2 13 C-2.95907777 10.30405579 -3.21615061 7.84875415 -3 5 C-1.5625 2 -1.5625 2 0 0 Z " fill="#36A78A" transform="translate(299,248)"/>
<path d="M0 0 C0.68964844 0.13277344 1.37929687 0.26554688 2.08984375 0.40234375 C16.8256508 3.17162436 29.34103019 3.91527333 44 0 C42.68364011 2.63271979 40.98730364 3.30246122 38.32275391 4.38037109 C33.38141704 5.69854567 28.26427282 5.38449054 23.1875 5.3125 C22.06279297 5.31572266 20.93808594 5.31894531 19.77929688 5.32226562 C12.95993361 5.27867876 6.62299314 4.63863036 0 3 C0 2.01 0 1.02 0 0 Z " fill="#31A88B" transform="translate(170,147)"/>
<path d="M0 0 C4.94169987 -0.29068823 8.85455304 0.16477634 13.625 1.5 C23.2407392 3.92384905 33.15471022 3.25849354 43 3 C39.17862323 5.54758451 35.82292974 5.49526392 31.375 5.6875 C30.55974854 5.72584961 29.74449707 5.76419922 28.90454102 5.80371094 C18.37121588 6.22955536 9.45401152 4.907588 0 0 Z " fill="#33A58A" transform="translate(164,165)"/>
<path d="M0 0 C0.99 0.33 1.98 0.66 3 1 C3.47678019 7.19814241 3.47678019 7.19814241 1.625 10.3125 C-1.70249128 12.45160154 -4.72292018 12.86394571 -8.58984375 13.49609375 C-11.4918781 14.10283999 -13.57111318 15.33014031 -16 17 C-16.66 17 -17.32 17 -18 17 C-18.33 17.99 -18.66 18.98 -19 20 C-19.99 20 -20.98 20 -22 20 C-22 20.66 -22 21.32 -22 22 C-22.66 21.67 -23.32 21.34 -24 21 C-20.67692308 16.2 -20.67692308 16.2 -17.25 15.1875 C-16.5075 15.125625 -15.765 15.06375 -15 15 C-15 14.34 -15 13.68 -15 13 C-14.26394531 12.74605469 -13.52789062 12.49210938 -12.76953125 12.23046875 C-11.79371094 11.88628906 -10.81789063 11.54210937 -9.8125 11.1875 C-8.84957031 10.85105469 -7.88664062 10.51460937 -6.89453125 10.16796875 C-4.05049702 9.02037599 -1.58128088 7.64692326 1 6 C0.67 4.02 0.34 2.04 0 0 Z " fill="#34A080" transform="translate(278,167)"/>
<path d="M0 0 C9.57 0.33 19.14 0.66 29 1 C26.56085508 3.43914492 25.78553569 3.28662523 22.4296875 3.4140625 C21.53378906 3.45273437 20.63789063 3.49140625 19.71484375 3.53125 C18.77769531 3.5621875 17.84054687 3.593125 16.875 3.625 C15.93011719 3.66367187 14.98523438 3.70234375 14.01171875 3.7421875 C11.67467625 3.83661346 9.33764499 3.92218394 7 4 C6.67 4.66 6.34 5.32 6 6 C5.34 6 4.68 6 4 6 C3.71125 5.38125 3.4225 4.7625 3.125 4.125 C2.06279958 1.86674235 2.06279958 1.86674235 0 0 Z " fill="#30B291" transform="translate(382,416)"/>
<path d="M0 0 C0.375 2.125 0.375 2.125 0 5 C-1.37488427 6.66731997 -2.88174249 8.06291823 -4.48046875 9.515625 C-6.20071411 11.06721209 -6.20071411 11.06721209 -7.625 13.75 C-9.15890439 16.26002536 -10.28970354 16.97195651 -13 18 C-6.61290323 0 -6.61290323 0 0 0 Z " fill="#2AAC84" transform="translate(236,103)"/>
<path d="M0 0 C1.58982909 2.92721055 2.52733331 5.67532567 3.2890625 8.9140625 C3.50820313 9.83960938 3.72734375 10.76515625 3.953125 11.71875 C4.17484375 12.6778125 4.3965625 13.636875 4.625 14.625 C4.85445313 15.59179688 5.08390625 16.55859375 5.3203125 17.5546875 C7 24.71335565 7 24.71335565 7 27 C6.34 27 5.68 27 5 27 C1.7759378 17.71470085 -0.36534519 9.90491406 0 0 Z " fill="#34A384" transform="translate(286,123)"/>
<path d="M0 0 C0.66 0.99 1.32 1.98 2 3 C1.125 5.6875 1.125 5.6875 0 8 C-0.33 7.34 -0.66 6.68 -1 6 C-1.66 6 -2.32 6 -3 6 C-3.33 7.32 -3.66 8.64 -4 10 C-4.66 10 -5.32 10 -6 10 C-5.773125 10.598125 -5.54625 11.19625 -5.3125 11.8125 C-5 14 -5 14 -6.125 15.75 C-8.53854651 17.35903101 -10.15673536 17.23053497 -13 17 C-13 17.66 -13 18.32 -13 19 C-13.66 18.67 -14.32 18.34 -15 18 C-12.78312925 15.1715787 -10.53711383 12.53711383 -8 10 C-7.14238965 8.94027766 -6.28852138 7.87752091 -5.4375 6.8125 C-4.633125 5.884375 -3.82875 4.95625 -3 4 C-2.34 4 -1.68 4 -1 4 C-0.67 2.68 -0.34 1.36 0 0 Z " fill="#35B593" transform="translate(77,110)"/>
<path d="M0 0 C0.99 0.33 1.98 0.66 3 1 C-0.08586552 7.8096744 -3.15719836 11.82536688 -10 15 C-13.5 16.3125 -13.5 16.3125 -16 17 C-16 16.34 -16 15.68 -16 15 C-15.34 15 -14.68 15 -14 15 C-13.67 14.01 -13.34 13.02 -13 12 C-12.0925 11.71125 -11.185 11.4225 -10.25 11.125 C-6.35048384 9.77516748 -4.63325093 8.14527194 -2 5 C-0.680982 2.33466965 -0.680982 2.33466965 0 0 Z " fill="#2EB288" transform="translate(456,417)"/>
<path d="M0 0 C0.99 0.33 1.98 0.66 3 1 C3.13277344 2.02480469 3.26554687 3.04960938 3.40234375 4.10546875 C3.58064088 5.4661574 3.75903123 6.82683385 3.9375 8.1875 C4.02451172 8.86103516 4.11152344 9.53457031 4.20117188 10.22851562 C4.67825477 13.85081166 5.23012035 17.42803585 6 21 C6.66 21 7.32 21 8 21 C8.33 23.64 8.66 26.28 9 29 C8.34 29 7.68 29 7 29 C0 7.70610687 0 7.70610687 0 0 Z " fill="#37A88B" transform="translate(119,101)"/>
<path d="M0 0 C-0.99 0 -1.98 0 -3 0 C-3.33 0.66 -3.66 1.32 -4 2 C-8.57080922 4.47804408 -12.71885861 6.02033558 -17.9375 5.9375 C-20.89050317 5.03351944 -22.18867383 4.45061776 -24 2 C-22.68 2 -21.36 2 -20 2 C-20 2.66 -20 3.32 -20 4 C-17.70763041 3.35658034 -15.41610969 2.7103774 -13.125 2.0625 C-12.47402344 1.88009766 -11.82304687 1.69769531 -11.15234375 1.50976562 C-2.83113405 -0.84934022 -2.83113405 -0.84934022 0 0 Z " fill="#2EA687" transform="translate(344,291)"/>
<path d="M0 0 C-6.19265192 3.2708579 -12.2813095 6.00386732 -19 8 C-19 7.34 -19 6.68 -19 6 C-17.02 5.34 -15.04 4.68 -13 4 C-13 3.34 -13 2.68 -13 2 C-11.5882217 1.46605821 -10.17029756 0.94834896 -8.75 0.4375 C-7.96109375 0.14746094 -7.1721875 -0.14257812 -6.359375 -0.44140625 C-3.80896548 -1.04522837 -2.44677771 -0.8473932 0 0 Z " fill="#31A587" transform="translate(257,93)"/>
<path d="M0 0 C2.35493692 0.45462103 4.70889085 0.913595 7.0625 1.375 C7.71927734 1.50132812 8.37605469 1.62765625 9.05273438 1.7578125 C13.44410701 2.6231076 17.69941159 3.74740143 22 5 C23.99488234 5.36270588 25.9937811 5.70640699 28 6 C28 6.33 28 6.66 28 7 C18.88187104 7.55825279 7.56659812 6.39644569 0 1 C0 0.67 0 0.34 0 0 Z " fill="#30B590" transform="translate(336,406)"/>
<path d="M0 0 C3 0 3 0 5.1875 1.875 C7 4 7 4 7 6 C7.53625 6.061875 8.0725 6.12375 8.625 6.1875 C12.17026157 7.40035264 14.2592392 9.44610926 17 12 C17 12.66 17 13.32 17 14 C17.66 14 18.32 14 19 14 C19.33 14.99 19.66 15.98 20 17 C19.34 17 18.68 17 18 17 C18 16.34 18 15.68 18 15 C16.35 14.34 14.7 13.68 13 13 C13 12.34 13 11.68 13 11 C12.01 10.67 11.02 10.34 10 10 C10 9.34 10 8.68 10 8 C9.4225 7.9175 8.845 7.835 8.25 7.75 C5.3460664 6.78202213 3.96259396 5.31305716 2 3 C2 2.34 2 1.68 2 1 C1.34 0.67 0.68 0.34 0 0 Z " fill="#2DB38D" transform="translate(389,333)"/>
<path d="M0 0 C4.39383706 1.59623144 8.28995807 3.78024333 12.3125 6.125 C12.95767578 6.49753906 13.60285156 6.87007813 14.26757812 7.25390625 C15.84675945 8.16632213 17.42361864 9.08275509 19 10 C18.01 10.33 17.02 10.66 16 11 C14.27909672 9.96096406 12.55910216 8.92022942 10.8515625 7.859375 C8.0422387 6.55546944 5.88765999 7.15483122 3 8 C3.33 6.68 3.66 5.36 4 4 C3.01 3.67 2.02 3.34 1 3 C0.67 2.01 0.34 1.02 0 0 Z " fill="#2AB58A" transform="translate(207,335)"/>
<path d="M0 0 C2.375 0.125 2.375 0.125 5 1 C6.875 3.375 6.875 3.375 8 6 C7.67 6.99 7.34 7.98 7 9 C6.01 7.02 5.02 5.04 4 3 C2.35 3 0.7 3 -1 3 C-1 3.66 -1 4.32 -1 5 C-3.97 5.66 -6.94 6.32 -10 7 C-8.68 6.34 -7.36 5.68 -6 5 C-6 4.34 -6 3.68 -6 3 C-5.195625 2.690625 -4.39125 2.38125 -3.5625 2.0625 C-1.10919595 1.23664655 -1.10919595 1.23664655 0 0 Z " fill="#2DA683" transform="translate(284,190)"/>
<path d="M0 0 C0.66 0.33 1.32 0.66 2 1 C0.38944319 2.77161249 -0.8924757 3.94786701 -3.0625 5 C-5.33242155 5.97325058 -5.33242155 5.97325058 -7 9 C-7.45139459 11.0492094 -7.45139459 11.0492094 -7.625 13.1875 C-7.74875 14.445625 -7.8725 15.70375 -8 17 C-10.2024745 13.69628826 -10.5345879 12.83121331 -10 9 C-7.50179905 4.1957674 -5.09544163 1.88309799 0 0 Z " fill="#28A680" transform="translate(285,212)"/>
<path d="M0 0 C3.31395208 0.27649607 6.62571605 0.57372434 9.9375 0.875 C11.35579102 0.99294922 11.35579102 0.99294922 12.80273438 1.11328125 C14.15141602 1.23896484 14.15141602 1.23896484 15.52734375 1.3671875 C16.35999756 1.44050293 17.19265137 1.51381836 18.05053711 1.58935547 C18.69385986 1.72486816 19.33718262 1.86038086 20 2 C20.33 2.66 20.66 3.32 21 4 C17.87392559 3.91932999 14.74983249 3.8064771 11.625 3.6875 C10.73554688 3.66494141 9.84609375 3.64238281 8.9296875 3.61914062 C8.07890625 3.58369141 7.228125 3.54824219 6.3515625 3.51171875 C5.56604004 3.48553467 4.78051758 3.45935059 3.97119141 3.43237305 C2 3 2 3 0 0 Z " fill="#2FB292" transform="translate(405,392)"/>
<path d="M0 0 C0.33 0.66 0.66 1.32 1 2 C1.66 2 2.32 2 3 2 C4.33858524 4.28874173 5.67101014 6.58069656 7 8.875 C7.3815625 9.52597656 7.763125 10.17695313 8.15625 10.84765625 C11 15.7734375 11 15.7734375 11 18 C9.1875 17.4375 9.1875 17.4375 7 16 C5.375 12.6875 5.375 12.6875 4 9 C3.608125 8.030625 3.21625 7.06125 2.8125 6.0625 C2.544375 5.381875 2.27625 4.70125 2 4 C1.34 4 0.68 4 0 4 C0 2.68 0 1.36 0 0 Z " fill="#2EA883" transform="translate(330,228)"/>
<path d="M0 0 C-0.99 0.33 -1.98 0.66 -3 1 C-8.34181522 2.8274631 -12.14198903 5.93893583 -16 10 C-16.33 8.68 -16.66 7.36 -17 6 C-15.35 5.34 -13.7 4.68 -12 4 C-12 3.34 -12 2.68 -12 2 C-4.71428571 -1.57142857 -4.71428571 -1.57142857 0 0 Z " fill="#30A783" transform="translate(261,111)"/>
<path d="M0 0 C3.15581517 3.46695188 3.96674928 7.1429505 4.8125 11.625 C5.03196289 12.6459375 5.03196289 12.6459375 5.25585938 13.6875 C5.64453125 15.6640625 5.64453125 15.6640625 6 19 C5.34 19.66 4.68 20.32 4 21 C3.79503906 20.08476563 3.59007812 19.16953125 3.37890625 18.2265625 C3.10949219 17.03804687 2.84007812 15.84953125 2.5625 14.625 C2.16224609 12.84996094 2.16224609 12.84996094 1.75390625 11.0390625 C1.14365305 8.10505419 1.14365305 8.10505419 0 6 C-0.039992 4.00039988 -0.04346799 1.99952758 0 0 Z " fill="#45B79E" transform="translate(133,63)"/>
<path d="M0 0 C3.63 0.33 7.26 0.66 11 1 C11.33 2.98 11.66 4.96 12 7 C7.69235185 5.43358249 3.93828536 3.31663844 0 1 C0 0.67 0 0.34 0 0 Z " fill="#44B8A4" transform="translate(297,408)"/>
<path d="M0 0 C0.99 0.33 1.98 0.66 3 1 C3 1.66 3 2.32 3 3 C3.66 3 4.32 3 5 3 C6.70884005 4.62339805 8.37446717 6.29319053 10 8 C10.66 8.66 11.32 9.32 12 10 C12 10.99 12 11.98 12 13 C11.01 12.67 10.02 12.34 9 12 C9 11.34 9 10.68 9 10 C8.34 10 7.68 10 7 10 C5.375 8.625 5.375 8.625 4 7 C4 6.34 4 5.68 4 5 C3.01 4.67 2.02 4.34 1 4 C1 3.34 1 2.68 1 2 C0.34 1.67 -0.32 1.34 -1 1 C-0.67 0.67 -0.34 0.34 0 0 Z " fill="#37B58F" transform="translate(32,243)"/>
<path d="M0 0 C1.5 1.25 1.5 1.25 3 3 C3 4.32 3 5.64 3 7 C3.66 7.33 4.32 7.66 5 8 C6.2890625 9.99609375 6.2890625 9.99609375 7.625 12.4375 C8.07101563 13.24058594 8.51703125 14.04367188 8.9765625 14.87109375 C10 17 10 17 10 19 C9.34 19 8.68 19 8 19 C7.67 18.01 7.34 17.02 7 16 C6.34 15.67 5.68 15.34 5 15 C3.7109375 12.63671875 3.7109375 12.63671875 2.375 9.6875 C1.92898437 8.72199219 1.48296875 7.75648437 1.0234375 6.76171875 C0 4 0 4 0 0 Z " fill="#2EA98A" transform="translate(140,112)"/>
<path d="M0 0 C0.66 0.33 1.32 0.66 2 1 C1.34 3.31 0.68 5.62 0 8 C-0.66 8 -1.32 8 -2 8 C-2.0825 8.61875 -2.165 9.2375 -2.25 9.875 C-3 12 -3 12 -5.0625 13.25 C-5.701875 13.4975 -6.34125 13.745 -7 14 C-5.23570801 9.02790438 -2.6060834 4.56561939 0 0 Z " fill="#2CB190" transform="translate(99,74)"/>
<path d="M0 0 C5.28 0 10.56 0 16 0 C16 0.66 16 1.32 16 2 C16.66 2.33 17.32 2.66 18 3 C11.71739294 3.23268915 6.11980533 2.40454548 0 1 C0 0.67 0 0.34 0 0 Z " fill="#28B998" transform="translate(400,410)"/>
<path d="M0 0 C3.76300503 1.25433501 5.19169424 3.19169424 8 6 C10.61573754 8.07119739 13.29523412 10.04693084 16 12 C13 13 13 13 10 12 C10 11.01 10 10.02 10 9 C7.525 8.01 7.525 8.01 5 7 C5 6.34 5 5.68 5 5 C4.360625 4.731875 3.72125 4.46375 3.0625 4.1875 C1 3 1 3 0 0 Z " fill="#33B691" transform="translate(58,244)"/>
<path d="M0 0 C0.99 0.495 0.99 0.495 2 1 C2 1.66 2 2.32 2 3 C2.66 3 3.32 3 4 3 C4 3.66 4 4.32 4 5 C4.66 5 5.32 5 6 5 C6.66 6.65 7.32 8.3 8 10 C2.25 8.375 2.25 8.375 0 5 C-0.125 2.3125 -0.125 2.3125 0 0 Z " fill="#30B59B" transform="translate(83,182)"/>
<path d="M0 0 C1.98 0.66 3.96 1.32 6 2 C7.20568053 6.67201205 7.09382426 11.21496292 7 16 C5.1379502 12.47655233 3.95892556 8.91653727 2.78125 5.12109375 C2.00127875 2.74956877 2.00127875 2.74956877 0 0 Z " fill="#30A485" transform="translate(261,112)"/>
<path d="M0 0 C0.66 0 1.32 0 2 0 C5 4.38461538 5 4.38461538 5 7 C5.99 7.33 6.98 7.66 8 8 C7.67 9.65 7.34 11.3 7 13 C5.35 13 3.7 13 2 13 C2.99 12.01 3.98 11.02 5 10 C3.35 6.7 1.7 3.4 0 0 Z " fill="#2EA783" transform="translate(309,230)"/>
<path d="M0 0 C1.32 0 2.64 0 4 0 C4.33 0.99 4.66 1.98 5 3 C7.01508358 3.73323796 7.01508358 3.73323796 9 4 C9 4.99 9 5.98 9 7 C9.66 7 10.32 7 11 7 C11 7.99 11 8.98 11 10 C9 10 9 10 6.625 7.75 C5.75875 6.8425 4.8925 5.935 4 5 C3.236875 4.2575 2.47375 3.515 1.6875 2.75 C0 1 0 1 0 0 Z " fill="#32B694" transform="translate(248,302)"/>
<path d="M0 0 C0.66 0.33 1.32 0.66 2 1 C-1.64751781 6.08441876 -3.85169289 7.79444959 -10 9 C-10 8.34 -10 7.68 -10 7 C-8.68 6.67 -7.36 6.34 -6 6 C-6 5.34 -6 4.68 -6 4 C-4.03852126 2.61061923 -2.03833424 1.2739589 0 0 Z " fill="#2FB48D" transform="translate(27,153)"/>
<path d="M0 0 C6.625 0.75 6.625 0.75 10 3 C10 3.99 10 4.98 10 6 C10.66 6 11.32 6 12 6 C12 6.66 12 7.32 12 8 C7.07567747 6.31166085 3.6564355 3.6564355 0 0 Z " fill="#32B996" transform="translate(105,229)"/>
<path d="M0 0 C0.66 0.33 1.32 0.66 2 1 C1.01 2.485 1.01 2.485 0 4 C-0.66 4 -1.32 4 -2 4 C-2.66 5.32 -3.32 6.64 -4 8 C-5.65 7.67 -7.3 7.34 -9 7 C-6.25604436 4.05278838 -3.61662784 1.80831392 0 0 Z " fill="#32B698" transform="translate(49,139)"/>
<path d="M0 0 C6.625 -0.25 6.625 -0.25 10 2 C11.65549531 2.38499891 13.3222433 2.72793135 15 3 C15 3.66 15 4.32 15 5 C9.33895411 4.50341703 5.12325529 3.45489316 0 1 C0 0.67 0 0.34 0 0 Z " fill="#30B28A" transform="translate(378,403)"/>
<path d="M0 0 C1 2 1 2 0.5 4.6875 C-0.0558677 8.3701235 0.34342354 11.35235301 1 15 C0.01 14.34 -0.98 13.68 -2 13 C-2.36328125 10.46875 -2.36328125 10.46875 -2.3125 7.5 C-2.30863281 6.5203125 -2.30476563 5.540625 -2.30078125 4.53125 C-2 2 -2 2 0 0 Z " fill="#2EB593" transform="translate(23,182)"/>
<path d="M0 0 C0.99 0.33 1.98 0.66 3 1 C1.35 1.66 -0.3 2.32 -2 3 C-2 3.99 -2 4.98 -2 6 C-1.34 6 -0.68 6 0 6 C1.6875 8.375 1.6875 8.375 3 11 C2.67 11.66 2.34 12.32 2 13 C-0.5 11.4375 -0.5 11.4375 -3 9 C-3.5 5.375 -3.5 5.375 -3 2 C-2.01 1.34 -1.02 0.68 0 0 Z " fill="#42B7A6" transform="translate(65,150)"/>
<path d="M0 0 C6.14830711 1.20555041 8.35248219 2.91558124 12 8 C11.01 8.495 11.01 8.495 10 9 C9.278125 8.401875 8.55625 7.80375 7.8125 7.1875 C5.08685797 4.9647189 5.08685797 4.9647189 2.1875 3.375 C1.465625 2.92125 0.74375 2.4675 0 2 C0 1.34 0 0.68 0 0 Z " fill="#2EB58D" transform="translate(226,285)"/>
<path d="M0 0 C2.64 0 5.28 0 8 0 C8.33 0.99 8.66 1.98 9 3 C9.99 3 10.98 3 12 3 C11.67 3.66 11.34 4.32 11 5 C9.53932801 4.54917531 8.08151968 4.08906463 6.625 3.625 C5.81289062 3.36976563 5.00078125 3.11453125 4.1640625 2.8515625 C2 2 2 2 0 0 Z " fill="#28B58B" transform="translate(164,256)"/>
<path d="M0 0 C0.99 0.33 1.98 0.66 3 1 C3.48514851 7.30693069 3.48514851 7.30693069 1.25 10.5 C-1 12 -1 12 -3.25 11.75 C-4.11625 11.37875 -4.11625 11.37875 -5 11 C-4.01 11 -3.02 11 -2 11 C-1.690625 10.360625 -1.38125 9.72125 -1.0625 9.0625 C0 7 0 7 1 6 C0.71325582 3.99279077 0.38133299 1.9914056 0 0 Z " fill="#28A585" transform="translate(278,167)"/>
<path d="M0 0 C5.75 0.75 5.75 0.75 8 3 C10.31765729 3.71927295 12.65095874 4.3909893 15 5 C14.67 5.99 14.34 6.98 14 8 C9.38 5.69 4.76 3.38 0 1 C0 0.67 0 0.34 0 0 Z " fill="#2BB48C" transform="translate(362,396)"/>
<path d="M0 0 C3.94216678 0.2687841 5.56489814 0.55344809 8.375 3.4375 C10 6 10 6 10 8 C6.05205855 6.32971708 3.18203882 3.8204435 0 1 C0 0.67 0 0.34 0 0 Z " fill="#30B38C" transform="translate(238,294)"/>
<path d="M0 0 C3 0 3 0 5.1875 1.875 C7 4 7 4 7 6 C7.66 6 8.32 6 9 6 C9.33 6.99 9.66 7.98 10 9 C6.75728494 8.4409112 5.06942576 7.5867822 3 5 C3 4.34 3 3.68 3 3 C2.01 2.67 1.02 2.34 0 2 C0 1.34 0 0.68 0 0 Z " fill="#30A887" transform="translate(141,148)"/>
<path d="M0 0 C1.65 0 3.3 0 5 0 C5 0.66 5 1.32 5 2 C5.66 2 6.32 2 7 2 C7 2.66 7 3.32 7 4 C7.99 4.33 8.98 4.66 10 5 C10 5.66 10 6.32 10 7 C7.525 6.01 7.525 6.01 5 5 C5 4.34 5 3.68 5 3 C2.525 2.01 2.525 2.01 0 1 C0 0.67 0 0.34 0 0 Z " fill="#31B28D" transform="translate(59,269)"/>
<path d="M0 0 C6 9 6 9 6 12 C3.63189682 11.05275873 2.24792047 10.34708866 0.75 8.25 C-0.19251213 5.42246362 -0.1345485 2.96006696 0 0 Z " fill="#2FA185" transform="translate(302,177)"/>
<path d="M0 0 C0 0.66 0 1.32 0 2 C1.65 1.34 3.3 0.68 5 0 C5 0.99 5 1.98 5 3 C4.34 3 3.68 3 3 3 C3 3.66 3 4.32 3 5 C0.08482708 3.92598892 -1.77810176 3.22189824 -4 1 C-2 0 -2 0 0 0 Z " fill="#26B488" transform="translate(249,377)"/>
<path d="M0 0 C1.65 0 3.3 0 5 0 C5.33 0.99 5.66 1.98 6 3 C8.01508358 3.73323796 8.01508358 3.73323796 10 4 C10 5.32 10 6.64 10 8 C9.34 8 8.68 8 8 8 C7.67 6.68 7.34 5.36 7 4 C6.34 4 5.68 4 5 4 C4.67 3.34 4.34 2.68 4 2 C2.35 2 0.7 2 -1 2 C-0.67 1.34 -0.34 0.68 0 0 Z " fill="#35A582" transform="translate(345,288)"/>
<path d="M0 0 C0.33 0.66 0.66 1.32 1 2 C1.66 2 2.32 2 3 2 C3.33 3.32 3.66 4.64 4 6 C4.66 6 5.32 6 6 6 C6 6.66 6 7.32 6 8 C4.35 8 2.7 8 1 8 C0.67 5.36 0.34 2.72 0 0 Z " fill="#2FA881" transform="translate(363,276)"/>
<path d="M0 0 C1.24791579 2.94961915 0.98579669 4.03945364 -0.125 7.125 C-2.20222909 10.3100846 -3.39728091 11.02629214 -7 12 C-6.67 11.01 -6.34 10.02 -6 9 C-5.34 9 -4.68 9 -4 9 C-3.71125 8.2575 -3.4225 7.515 -3.125 6.75 C-2.17697356 4.43260203 -1.15154089 2.22082885 0 0 Z " fill="#35B599" transform="translate(85,98)"/>
<path d="M0 0 C2.99693138 0.99897713 4.02709413 1.65130253 6 4 C6 4.66 6 5.32 6 6 C6.99 6.33 7.98 6.66 9 7 C8.67 7.66 8.34 8.32 8 9 C3.15544041 6.62176166 3.15544041 6.62176166 1 5 C0.0625 2.25 0.0625 2.25 0 0 Z " fill="#30B28C" transform="translate(281,307)"/>
<path d="M0 0 C3.5371438 0.56132934 4.99261679 1.69557747 7.25 4.4375 C8.03117187 5.36369141 8.03117187 5.36369141 8.828125 6.30859375 C10 8 10 8 10 10 C9.34 10 8.68 10 8 10 C4 5.52941176 4 5.52941176 4 3 C3.34 3 2.68 3 2 3 C2 2.34 2 1.68 2 1 C1.34 0.67 0.68 0.34 0 0 Z " fill="#31AF91" transform="translate(359,302)"/>
<path d="M0 0 C3.375 -0.125 3.375 -0.125 7 0 C9 2 9 2 9 5 C5.54074837 3.7508258 2.85306797 2.32472205 0 0 Z " fill="#74BED5" transform="translate(96,292)"/>
<path d="M0 0 C0.33 0.99 0.66 1.98 1 3 C-0.7015625 3.680625 -0.7015625 3.680625 -2.4375 4.375 C-6.04721692 5.57095806 -6.04721692 5.57095806 -7 8 C-7.66 8 -8.32 8 -9 8 C-8.75390625 6.140625 -8.75390625 6.140625 -8 4 C-6.15234375 2.734375 -6.15234375 2.734375 -3.9375 1.75 C-2.83728516 1.24726563 -2.83728516 1.24726563 -1.71484375 0.734375 C-1.14894531 0.49203125 -0.58304687 0.2496875 0 0 Z " fill="#2FA585" transform="translate(328,275)"/>
<path d="M0 0 C1.48199902 0.44909061 2.96055236 0.90956564 4.4375 1.375 C5.26121094 1.63023437 6.08492188 1.88546875 6.93359375 2.1484375 C9 3 9 3 10 5 C6.53058454 4.54177532 3.32604951 4.10868317 0 3 C0 2.01 0 1.02 0 0 Z " fill="#72BFD5" transform="translate(371,380)"/>
<path d="M0 0 C2.4375 0.9375 2.4375 0.9375 5 3 C5.7524935 5.98877701 5.92909865 8.92545953 6 12 C3.45535008 8.18302512 1.45192347 4.35577041 0 0 Z " fill="#2FB38B" transform="translate(436,375)"/>
<path d="M0 0 C3.96 1.98 7.92 3.96 12 6 C8.69538587 7.10153804 8.01331168 6.95317786 4.875 5.8125 C4.17117187 5.57144531 3.46734375 5.33039063 2.7421875 5.08203125 C1 4 1 4 0 0 Z " fill="#33B490" transform="translate(83,263)"/>
<path d="M0 0 C0.33 0.99 0.66 1.98 1 3 C-2.00617269 6.00617269 -4.82381598 5.59585316 -9 6 C-6.45543849 3.03134491 -3.51005335 1.6380249 0 0 Z " fill="#2BAA82" transform="translate(309,242)"/>
<path d="M0 0 C-1 2 -1 2 -3.125 3.125 C-6.52391089 4.15945114 -9.46640886 4.1385722 -13 4 C-13 3.67 -13 3.34 -13 3 C-12.05125 2.690625 -11.1025 2.38125 -10.125 2.0625 C-3.76724138 -0.09913793 -3.76724138 -0.09913793 0 0 Z " fill="#32A17E" transform="translate(274,197)"/>
<path d="M0 0 C-3.16240582 2.10827055 -4.50657469 2.33817465 -8.1875 2.625 C-9.53908203 2.73714844 -9.53908203 2.73714844 -10.91796875 2.8515625 C-11.94857422 2.92503906 -11.94857422 2.92503906 -13 3 C-8.8341563 0.22277086 -4.9360889 -1.89849573 0 0 Z " fill="#509B9A" transform="translate(257,93)"/>
<path d="M0 0 C5.94 0.99 5.94 0.99 12 2 C12 2.33 12 2.66 12 3 C3.57142857 4.42857143 3.57142857 4.42857143 -1 2 C-0.67 1.34 -0.34 0.68 0 0 Z " fill="#2FB891" transform="translate(369,413)"/>
<path d="M0 0 C1.32 0 2.64 0 4 0 C4 0.66 4 1.32 4 2 C5.65 2 7.3 2 9 2 C9.33 3.32 9.66 4.64 10 6 C6.40992874 4.66654496 3.20429093 3.1056769 0 1 C0 0.67 0 0.34 0 0 Z " fill="#2EB088" transform="translate(197,350)"/>
<path d="M0 0 C2.71224618 1.61268692 5.37352812 3.24901874 8 5 C8 5.66 8 6.32 8 7 C6.02 6.34 4.04 5.68 2 5 C2 4.01 2 3.02 2 2 C1.34 2 0.68 2 0 2 C0 1.34 0 0.68 0 0 Z " fill="#33B3A2" transform="translate(106,206)"/>
<path d="M0 0 C2.97 0.33 5.94 0.66 9 1 C5.3558226 3.4294516 3.28758728 3.16179575 -1 3 C-0.67 2.01 -0.34 1.02 0 0 Z " fill="#1CAB7E" transform="translate(234,154)"/>
<path d="M0 0 C3.3 1.65 6.6 3.3 10 5 C6.86650268 6.04449911 6.01031744 5.93423645 3 5 C3 4.34 3 3.68 3 3 C2.01 2.67 1.02 2.34 0 2 C0 1.34 0 0.68 0 0 Z " fill="#29B388" transform="translate(352,370)"/>
<path d="M0 0 C2.31 0 4.62 0 7 0 C7.33 1.65 7.66 3.3 8 5 C6 4 6 4 4 2 C2.68 2 1.36 2 0 2 C0 1.34 0 0.68 0 0 Z " fill="#2AA582" transform="translate(301,224)"/>
<path d="M0 0 C1.98 0.66 3.96 1.32 6 2 C6.33 3.65 6.66 5.3 7 7 C6.34 7 5.68 7 5 7 C0 1.4047619 0 1.4047619 0 0 Z " fill="#2BAE8C" transform="translate(134,141)"/>
<path d="M0 0 C0.66 1.32 1.32 2.64 2 4 C-0.90600261 5.25664978 -2.79604584 6 -6 6 C-6 5.34 -6 4.68 -6 4 C-4.02 3.34 -2.04 2.68 0 2 C0 1.34 0 0.68 0 0 Z " fill="#33BB97" transform="translate(57,133)"/>
<path d="M0 0 C0.33 0.66 0.66 1.32 1 2 C-0.76227632 5.61730402 -2.64326421 7.80075931 -6 10 C-5.58578031 5.16743695 -3.53586014 3.17320782 0 0 Z " fill="#3AB49D" transform="translate(98,112)"/>
<path d="M0 0 C2.97 1.65 5.94 3.3 9 5 C9 5.33 9 5.66 9 6 C6.75 6.25 6.75 6.25 4 6 C1.6875 4.125 1.6875 4.125 0 2 C0 1.34 0 0.68 0 0 Z " fill="#2DB288" transform="translate(208,253)"/>
<path d="M0 0 C2.97 0.33 5.94 0.66 9 1 C9 1.99 9 2.98 9 4 C6.03 3.01 3.06 2.02 0 1 C0 0.67 0 0.34 0 0 Z " fill="#34B699" transform="translate(124,241)"/>
<path d="M0 0 C0.66 0 1.32 0 2 0 C4.09230769 4.43076923 4.09230769 4.43076923 3.625 7.3125 C3.41875 7.869375 3.2125 8.42625 3 9 C0.70620251 5.55930376 0 4.27709699 0 0 Z " fill="#32A580" transform="translate(294,159)"/>
<path d="M0 0 C3.68754757 0.49831724 5.60490662 1.10067643 8 4 C5.36 3.67 2.72 3.34 0 3 C0 2.01 0 1.02 0 0 Z " fill="#27AB90" transform="translate(170,147)"/>
<path d="M0 0 C2.97 1.65 5.94 3.3 9 5 C8.01 5.33 7.02 5.66 6 6 C2.8125 4.1875 2.8125 4.1875 0 2 C0 1.34 0 0.68 0 0 Z " fill="#33A683" transform="translate(160,141)"/>
<path d="M0 0 C5.625 -0.25 5.625 -0.25 9 2 C9 2.66 9 3.32 9 4 C5.17902761 3.46930939 2.93828597 2.50298434 0 0 Z " fill="#2BB791" transform="translate(309,415)"/>
<path d="M0 0 C3.45925163 1.2491742 6.14693203 2.67527795 9 5 C7.68 5.33 6.36 5.66 5 6 C3.35 4.02 1.7 2.04 0 0 Z " fill="#27B489" transform="translate(238,353)"/>
<path d="M0 0 C1.98 0 3.96 0 6 0 C6.66 1.65 7.32 3.3 8 5 C4.62496331 3.8141763 2.35277269 2.72426311 0 0 Z " fill="#2CB086" transform="translate(166,332)"/>
<path d="M0 0 C0.66 0 1.32 0 2 0 C3.38232443 1.62626404 4.71937515 3.2925002 6 5 C5.67 5.66 5.34 6.32 5 7 C3.29115995 5.37660195 1.62553283 3.70680947 0 2 C0 1.34 0 0.68 0 0 Z " fill="#35A584" transform="translate(370,286)"/>
<path d="M0 0 C2.76276177 0.52268466 5.3260876 1.10869587 8 2 C8.33 2.99 8.66 3.98 9 5 C5.22454612 3.90931332 2.52956528 3.0916909 0 0 Z " fill="#2EB395" transform="translate(214,278)"/>
<path d="M0 0 C3.34373475 0.55728913 6.03312999 1.35173889 9 3 C9 3.66 9 4.32 9 5 C5.54074837 3.7508258 2.85306797 2.32472205 0 0 Z " fill="#32A683" transform="translate(152,158)"/>
<path d="M0 0 C1 4 1 4 -0.9375 7.25 C-1.618125 8.1575 -2.29875 9.065 -3 10 C-3.66 9.67 -4.32 9.34 -5 9 C-3.35 6.03 -1.7 3.06 0 0 Z " fill="#39B496" transform="translate(91,88)"/>
</svg>
